<svg width="426" height="186" viewBox="0 0 426 186" fill="none" xmlns="http://www.w3.org/2000/svg">
<path d="M231.028 18.3549C289.319 32.6711 339.873 54.2052 374.483 77.3664C391.797 88.9531 405.004 100.87 413.221 112.388C421.443 123.915 424.482 134.76 422.108 144.428C419.733 154.095 412.017 162.297 399.39 168.704C386.772 175.105 369.547 179.548 348.836 181.795C307.433 186.288 252.655 181.953 194.365 167.636C136.074 153.32 85.5203 131.786 50.91 108.625C33.5957 97.0381 20.3888 85.1217 12.1724 73.6032C3.94994 62.0762 0.910767 51.2322 3.28499 41.5647C5.65935 31.897 13.3764 23.694 26.0035 17.2875C38.6211 10.8859 55.8458 6.44347 76.5577 4.19598C117.96 -0.296593 172.738 4.03874 231.028 18.3549Z" fill="#FFF963" stroke="#4C0100" stroke-width="5"/>
</svg>
